<svg id="svg_saramin_ci" viewBox="0 0 126 40" xmlns="http://www.w3.org/2000/svg">
  <g transform="translate(29 7)">
      <path fill="#4876EF" d="M22.467 19.27l-.039.023c-.288.175-1.166.708-2.76.708-1.653 0-2.602-.682-2.602-1.873 0-1.089 1.012-1.82 2.518-1.82 1.072 0 1.875.165 2.823.432l.06.016v2.513zm-7.922-8.72c0 .495.205.912.577 1.173.46.322 1.13.373 1.89.143.684-.21 1.71-.46 2.713-.46 1.921 0 2.742.65 2.742 2.17v.823l-.103-.024c-1.032-.233-1.858-.399-3.087-.399-5.274 0-5.684 3.28-5.684 4.286 0 2.24 1.53 4.634 5.823 4.634 3.352 0 5.333-1.117 5.86-1.46.481-.307.636-.597.636-1.193v-6.56c0-3.555-2.054-5.357-6.104-5.357-1.692 0-3.302.343-4.082.663-.784.308-1.181.834-1.181 1.56zM63.698 9.889l-.051-.054c-1.01-1.03-2.28-1.51-4-1.51-1.85 0-3.723.568-5.01 1.52-.517.36-.69.677-.69 1.255v10.017c0 .964.815 1.779 1.78 1.779 1.015 0 1.78-.765 1.78-1.779v-8.742l.092-.056c.274-.17 1.001-.626 2.215-.626 1.549 0 2.335.843 2.335 2.504v6.92c0 .964.815 1.779 1.78 1.779.998 0 1.78-.782 1.78-1.779v-8.742l.092-.056c.274-.17 1.001-.626 2.215-.626 1.528 0 2.335.875 2.335 2.53v6.894c0 .964.802 1.779 1.751 1.779 1.015 0 1.81-.782 1.81-1.779v-6.974c0-3.914-1.865-5.817-5.702-5.817-1.616 0-3.156.525-4.453 1.517l-.059.046zM47.529 19.27l-.039.023c-.288.175-1.164.708-2.76.708-1.654 0-2.602-.682-2.602-1.873 0-1.089 1.012-1.82 2.518-1.82 1.072 0 1.875.165 2.823.432l.06.016v2.513zm-7.922-8.72c0 .495.205.911.577 1.173.46.322 1.13.373 1.89.143.684-.21 1.71-.46 2.713-.46 1.921 0 2.742.65 2.742 2.17v.823l-.103-.024c-1.032-.233-1.858-.399-3.087-.399-5.274 0-5.684 3.28-5.684 4.286 0 2.24 1.53 4.634 5.823 4.634 3.352 0 5.333-1.117 5.86-1.46.481-.306.635-.596.635-1.193v-6.56c0-3.555-2.053-5.357-6.102-5.357-1.694 0-3.304.343-4.083.663-.784.308-1.181.833-1.181 1.56zM36.129 8.539c-.548-.131-1.464-.213-2.391-.213-3.084 0-4.853 1.649-4.853 4.525v8.388c0 .914.774 1.657 1.725 1.657.016-.002.024-.004.033-.004l.03.002h.002c1.014 0 1.801-.768 1.801-1.75v-7.62c0-1.201.504-1.8 1.54-1.83.472-.017.869.06 1.25.133.296.056.575.109.856.109 1.148 0 1.683-.965 1.683-1.617 0-.87-.595-1.501-1.676-1.78M7.806 14.497l-2.203-.44c-1.233-.27-1.758-.665-1.758-1.325 0-.382.203-1.27 2.085-1.27.78 0 1.908.264 2.624.615.893.45 1.812.371 2.344-.202.296-.332.452-.799.416-1.246-.025-.301-.145-.733-.577-1.083-.899-.73-2.774-1.22-4.667-1.22-3.454 0-5.686 1.772-5.686 4.516 0 2.572 2.217 3.668 4.076 4.134.638.16.956.216 1.325.281.264.047.538.095.961.187 1.177.274 1.7.7 1.7 1.38 0 .493-.284 1.32-2.19 1.32-1.32 0-2.748-.363-3.637-.924-.359-.224-.726-.334-1.073-.334-.488 0-.935.217-1.256.643-.492.633-.34 1.663.323 2.205.578.474 2.274 1.578 5.524 1.578 3.443 0 5.757-1.893 5.757-4.71 0-2.142-1.338-3.485-4.088-4.105M78.584 6.66c-.968 0-1.699.76-1.699 1.768v9.37c0 .958.778 1.767 1.699 1.767.953 0 1.7-.776 1.7-1.767v-9.37c0-.99-.747-1.767-1.7-1.767"></path>
      <path fill="#4876EF" d="M78.584 0c-1.453 0-2.549 1.059-2.549 2.462 0 1.42 1.12 2.533 2.55 2.533 1.38 0 2.548-1.16 2.548-2.533 0-1.38-1.12-2.462-2.549-2.462" mask="url(#1f8v900bkb)"></path>
      <path fill="#4876EF" d="M89.736 8.326c-3.553 0-5.485 1.221-5.843 1.466-.476.323-.636.64-.636 1.255v10.07c0 .964.82 1.779 1.79 1.779 1.02 0 1.79-.765 1.79-1.779v-8.742l.038-.023c.522-.317 1.58-.659 2.75-.659 1.35 0 2.795.686 2.795 2.612v6.812c0 .964.82 1.779 1.79 1.779 1.02 0 1.79-.765 1.79-1.779v-6.974c0-3.806-2.166-5.817-6.264-5.817" mask="url(#09ysurdxqd)"></path>
  </g>
  <g>
      <circle cx="4.5" cy="14.5" r="4.5" fill="#4876EF"></circle>
      <circle cx="16.5" cy="14.5" r="4.5" fill="#B4C0D3"></circle>
      <circle cx="4.5" cy="26.5" r="4.5" fill="#B4C0D3"></circle>
      <circle cx="16.5" cy="26.5" r="4.5" fill="#00D3AB"></circle>
  </g>
</svg>